<?xml version="1.0" encoding="utf-8"?>
<!-- Generator: Adobe Illustrator 16.0.0, SVG Export Plug-In . SVG Version: 6.00 Build 0)  -->
<!DOCTYPE svg PUBLIC "-//W3C//DTD SVG 1.1//EN" "http://www.w3.org/Graphics/SVG/1.1/DTD/svg11.dtd">
<svg version="1.1" id="Ebene_1" xmlns="http://www.w3.org/2000/svg" xmlns:xlink="http://www.w3.org/1999/xlink" x="0px" y="0px"
	 width="16px" height="16px" viewBox="0 0 16 16" enable-background="new 0 0 16 16" xml:space="preserve">
<path fill-rule="evenodd" clip-rule="evenodd" fill="#221E1B" d="M8,0C3.583,0,0,3.582,0,8c0,3.535,2.292,6.533,5.472,7.592
	c0.4,0.073,0.545-0.173,0.545-0.386c0-0.189-0.006-0.693-0.01-1.361c-2.226,0.483-2.695-1.071-2.695-1.071
	c-0.364-0.924-0.888-1.17-0.888-1.17c-0.727-0.497,0.055-0.487,0.055-0.487c0.803,0.056,1.225,0.825,1.225,0.825
	c0.714,1.221,1.873,0.869,2.328,0.665c0.073-0.518,0.281-0.87,0.508-1.07c-1.776-0.202-3.644-0.889-3.644-3.954
	c0-0.875,0.312-1.588,0.824-2.147C3.637,5.233,3.362,4.419,3.798,3.318c0,0,0.671-0.215,2.2,0.82
	C6.636,3.961,7.32,3.872,8.001,3.869c0.679,0.003,1.363,0.092,2.003,0.269c1.526-1.036,2.197-0.82,2.197-0.82
	c0.437,1.102,0.161,1.916,0.08,2.118c0.513,0.559,0.822,1.272,0.822,2.147c0,3.073-1.871,3.75-3.652,3.947
	c0.286,0.248,0.542,0.735,0.542,1.482c0,1.069-0.01,1.933-0.01,2.194c0,0.214,0.145,0.463,0.551,0.385C13.709,14.53,16,11.534,16,8
	C16,3.582,12.42,0,8,0z"/>
</svg>
