<?xml version="1.0" encoding="UTF-8" standalone="no"?>
<!-- Created with Inkscape (http://www.inkscape.org/) -->

<svg
   xmlns:dc="http://purl.org/dc/elements/1.1/"
   xmlns:cc="http://creativecommons.org/ns#"
   xmlns:rdf="http://www.w3.org/1999/02/22-rdf-syntax-ns#"
   xmlns:svg="http://www.w3.org/2000/svg"
   xmlns="http://www.w3.org/2000/svg"
   xmlns:sodipodi="http://sodipodi.sourceforge.net/DTD/sodipodi-0.dtd"
   xmlns:inkscape="http://www.inkscape.org/namespaces/inkscape"
   version="1.1"
   id="svg1449"
   width="32.639999"
   height="32.32"
   viewBox="0 0 32.639999 32.32"
   sodipodi:docname="Lecture2Gether_filled.svg"
   inkscape:version="0.92.4 (5da689c313, 2019-01-14)">
  <metadata
     id="metadata1455">
    <rdf:RDF>
      <cc:Work
         rdf:about="">
        <dc:format>image/svg+xml</dc:format>
        <dc:type
           rdf:resource="http://purl.org/dc/dcmitype/StillImage" />
        <dc:title />
      </cc:Work>
    </rdf:RDF>
  </metadata>
  <defs
     id="defs1453">
    <inkscape:perspective
       sodipodi:type="inkscape:persp3d"
       inkscape:vp_x="0 : 16.16 : 1"
       inkscape:vp_y="0 : 1000 : 0"
       inkscape:vp_z="32.639999 : 16.16 : 1"
       inkscape:persp3d-origin="16.32 : 10.773333 : 1"
       id="perspective2022" />
  </defs>
  <sodipodi:namedview
     pagecolor="#ffffff"
     bordercolor="#666666"
     borderopacity="1"
     objecttolerance="10"
     gridtolerance="10"
     guidetolerance="10"
     inkscape:pageopacity="0"
     inkscape:pageshadow="2"
     inkscape:window-width="1842"
     inkscape:window-height="1016"
     id="namedview1451"
     showgrid="false"
     showguides="false"
     inkscape:zoom="22.627417"
     inkscape:cx="15.646777"
     inkscape:cy="17.453556"
     inkscape:window-x="78"
     inkscape:window-y="27"
     inkscape:window-maximized="1"
     inkscape:current-layer="svg1449" />
  <path
     style="opacity:1;fill:#000000;fill-opacity:1;stroke:none;stroke-width:0.60000002;stroke-linecap:butt;stroke-linejoin:round;stroke-miterlimit:4;stroke-dasharray:none;stroke-dashoffset:0;stroke-opacity:1;paint-order:normal"
     d="M 4.5195312 3.7871094 C 4.1317313 3.7871094 3.8203125 4.0985281 3.8203125 4.4863281 L 3.8203125 19.087891 C 3.8203125 19.475691 4.1317313 19.787109 4.5195312 19.787109 L 28.121094 19.787109 C 28.508894 19.787109 28.820312 19.475691 28.820312 19.087891 L 28.820312 4.4863281 C 28.820313 4.0985281 28.508894 3.7871094 28.121094 3.7871094 L 4.5195312 3.7871094 z M 16.320312 5.6835938 C 17.417461 5.6832809 18.306953 6.5727734 18.306641 7.6699219 C 18.305875 8.7663075 17.416699 9.6546098 16.320312 9.6542969 C 15.223928 9.6546093 14.33475 8.7663072 14.333984 7.6699219 C 14.333672 6.5727738 15.223164 5.6832813 16.320312 5.6835938 z M 12.880859 8.4394531 C 12.880859 8.4394531 12.882812 8.4394531 12.882812 8.4394531 C 12.897132 8.4389401 12.911461 8.4389401 12.925781 8.4394531 C 13.256847 8.4396682 13.525176 8.7079964 13.525391 9.0390625 C 13.525176 9.3701286 13.256847 9.6384568 12.925781 9.6386719 C 12.792023 9.6386833 12.662097 9.5939999 12.556641 9.5117188 C 11.93712 9.7513344 11.488077 10.395562 11.427734 11.169922 L 21.210938 11.169922 C 21.150827 10.396099 20.702567 9.7517344 20.083984 9.5117188 C 19.978528 9.5939998 19.848602 9.6386833 19.714844 9.6386719 C 19.383778 9.6384568 19.115449 9.3701286 19.115234 9.0390625 C 19.115449 8.7079964 19.383778 8.4396682 19.714844 8.4394531 C 20.04591 8.4396688 20.314238 8.7079968 20.314453 9.0390625 C 20.314788 9.1145555 20.300878 9.1894333 20.273438 9.2597656 C 20.975939 9.56952 21.452948 10.313456 21.511719 11.169922 L 21.619141 11.169922 C 22.006941 11.169922 22.320314 11.481341 22.320312 11.869141 L 22.320312 12.470703 C 22.320312 12.858503 22.006941 13.169922 21.619141 13.169922 L 11.019531 13.169922 C 10.631731 13.169922 10.320318 12.858503 10.320312 12.470703 L 10.320312 11.869141 C 10.320312 11.481341 10.631731 11.169922 11.019531 11.169922 L 11.128906 11.169922 C 11.187626 10.31414 11.663641 9.5699645 12.365234 9.2597656 C 12.337804 9.1894336 12.323879 9.1145554 12.324219 9.0390625 C 12.323601 8.724062 12.566682 8.4622166 12.880859 8.4394531 z M 16.232422 9.8867188 C 16.261722 9.8863969 16.291012 9.8863969 16.320312 9.8867188 C 17.429607 9.8880288 18.488542 10.185884 19.244141 10.998047 L 13.390625 10.998047 C 14.126651 10.206403 15.15174 9.9104084 16.232422 9.8867188 z M 11.320312 13.320312 L 21.320312 13.320312 L 20.320312 18.320312 L 12.320312 18.320312 L 11.320312 13.320312 z "
     id="rect2046" />
  <circle
     style="opacity:1;fill:#000000;fill-opacity:1;stroke:#000000;stroke-width:0.6;stroke-linecap:butt;stroke-linejoin:miter;stroke-miterlimit:4;stroke-dasharray:none;stroke-dashoffset:0;stroke-opacity:1;paint-order:normal"
     id="path2182"
     cx="7.5322032"
     cy="22.927456"
     r="1.9857627" />
  <path
     style="opacity:1;fill:#000000;fill-opacity:1;stroke:#000000;stroke-width:0.60000002;stroke-linecap:butt;stroke-linejoin:miter;stroke-miterlimit:4;stroke-dasharray:none;stroke-dashoffset:0;stroke-opacity:1;paint-order:normal"
     id="path2184"
     sodipodi:type="arc"
     sodipodi:cx="7.6349154"
     sodipodi:cy="27.515253"
     sodipodi:rx="3.5"
     sodipodi:ry="1.8"
     sodipodi:start="3.1415927"
     sodipodi:end="0"
     d="m 4.1349154,27.515253 a 3.5,1.8 0 0 1 3.5,-1.8 3.5,1.8 0 0 1 3.4999996,1.8 H 7.6349154 Z" />
  <circle
     style="opacity:1;fill:#000000;fill-opacity:1;stroke:#000000;stroke-width:0.6;stroke-linecap:butt;stroke-linejoin:miter;stroke-miterlimit:4;stroke-dasharray:none;stroke-dashoffset:0;stroke-opacity:1;paint-order:normal"
     id="path2182-9"
     cx="16.108644"
     cy="23.954575"
     r="1.9857627" />
  <path
     style="opacity:1;fill:#000000;fill-opacity:1;stroke:#000000;stroke-width:0.60000002;stroke-linecap:butt;stroke-linejoin:miter;stroke-miterlimit:4;stroke-dasharray:none;stroke-dashoffset:0;stroke-opacity:1;paint-order:normal"
     id="path2184-1"
     sodipodi:type="arc"
     sodipodi:cx="16.211357"
     sodipodi:cy="28.542372"
     sodipodi:rx="3.5"
     sodipodi:ry="1.8"
     sodipodi:start="3.1415927"
     sodipodi:end="0"
     d="m 12.711357,28.542372 a 3.5,1.8 0 0 1 3.5,-1.8 3.5,1.8 0 0 1 3.5,1.8 h -3.5 z" />
  <circle
     style="opacity:1;fill:#000000;fill-opacity:1;stroke:#000000;stroke-width:0.6;stroke-linecap:butt;stroke-linejoin:miter;stroke-miterlimit:4;stroke-dasharray:none;stroke-dashoffset:0;stroke-opacity:1;paint-order:normal"
     id="path2182-9-7"
     cx="24.685083"
     cy="22.927456"
     r="1.9857627" />
  <path
     style="opacity:1;fill:#000000;fill-opacity:1;stroke:#000000;stroke-width:0.60000002;stroke-linecap:butt;stroke-linejoin:miter;stroke-miterlimit:4;stroke-dasharray:none;stroke-dashoffset:0;stroke-opacity:1;paint-order:normal"
     id="path2184-1-0"
     sodipodi:type="arc"
     sodipodi:cx="24.787796"
     sodipodi:cy="27.515253"
     sodipodi:rx="3.5"
     sodipodi:ry="1.8"
     sodipodi:start="3.1415927"
     sodipodi:end="0"
     d="m 21.287796,27.515253 a 3.5,1.8 0 0 1 3.5,-1.8 3.5,1.8 0 0 1 3.5,1.8 h -3.5 z" />
</svg>
